<?xml version="1.0" standalone="no"?>
<!DOCTYPE svg PUBLIC "-//W3C//DTD SVG 20010904//EN"
 "http://www.w3.org/TR/2001/REC-SVG-20010904/DTD/svg10.dtd">
<svg version="1.0" xmlns="http://www.w3.org/2000/svg"
 width="500.000000pt" height="500.000000pt" viewBox="0 0 500.000000 500.000000"
 preserveAspectRatio="xMidYMid meet">
<metadata>
Created by potrace 1.11, written by Peter Selinger 2001-2013
</metadata>
<g transform="translate(0.000000,500.000000) scale(0.100000,-0.100000)"
fill="#000000" stroke="none">
<path d="M1692 3492 c-1419 -662 -1646 -771 -1659 -795 -17 -33 -10 -78 15
-100 9 -8 145 -83 302 -167 157 -85 292 -160 301 -167 9 -8 121 -238 249 -513
212 -454 235 -500 264 -513 84 -40 1356 -497 1381 -497 29 0 2375 1089 2407
1117 42 38 25 121 -29 141 -15 5 -100 35 -188 66 -88 31 -163 60 -167 64 -4 4
-16 64 -27 134 -11 69 -26 138 -32 151 -14 31 -60 52 -95 43 -14 -4 -116 -91
-227 -193 -111 -102 -214 -197 -228 -210 l-26 -24 -121 261 -122 261 65 110
c127 214 261 499 350 746 46 127 54 176 31 205 -17 23 -64 40 -89 32 -11 -3
-173 -78 -360 -165 -187 -87 -344 -159 -348 -159 -7 0 -62 110 -111 222 l-20
47 123 283 c67 155 122 295 122 310 0 42 -39 78 -82 77 -26 0 -498 -216 -1679
-767z m2218 -108 c0 -18 -112 -270 -180 -404 -306 -604 -677 -1001 -1093
-1168 -54 -22 -107 -48 -117 -57 -28 -26 -27 -85 2 -112 38 -34 61 -35 139 -7
180 65 380 187 549 337 l96 84 62 -49 c35 -27 95 -79 133 -116 125 -117 329
-367 312 -382 -4 -4 -291 -138 -637 -299 -400 -186 -636 -291 -650 -288 -22 4
-1257 455 -1263 460 -1 2 -108 227 -235 501 l-233 498 -240 129 c-132 72 -244
134 -248 138 -4 4 52 35 125 69 73 33 286 131 473 218 602 278 598 277 720
277 97 0 160 -26 228 -94 91 -92 158 -255 182 -448 9 -67 39 -101 87 -100 21
0 337 143 903 409 479 224 873 408 878 409 4 1 7 -2 7 -5z m479 -1257 c6 -35
11 -71 11 -81 0 -32 45 -62 153 -100 59 -21 107 -40 105 -41 -3 -3 -515 -244
-535 -252 -8 -3 -31 35 -63 102 l-50 107 73 67 c206 192 283 261 288 261 4 0
12 -28 18 -63z"/>
<path d="M1088 2810 c-100 -53 -142 -182 -92 -281 41 -81 146 -130 233 -109
59 14 115 58 142 113 31 60 24 152 -16 209 -59 82 -180 113 -267 68z"/>
</g>
</svg>
